<?xml version="1.0" encoding="UTF-8"?>
<!DOCTYPE svg PUBLIC "-//W3C//DTD SVG 1.1//EN" "http://www.w3.org/Graphics/SVG/1.1/DTD/svg11.dtd">
<svg xmlns="http://www.w3.org/2000/svg" version="1.1" width="960px" height="1070px" style="shape-rendering:geometricPrecision; text-rendering:geometricPrecision; image-rendering:optimizeQuality; fill-rule:evenodd; clip-rule:evenodd" xmlns:xlink="http://www.w3.org/1999/xlink">
<g><path style="opacity:1" fill="#ede6d8" d="M -0.5,-0.5 C 319.5,-0.5 639.5,-0.5 959.5,-0.5C 959.5,54.5 959.5,109.5 959.5,164.5C 932.984,139.814 904.317,117.98 873.5,99C 828.684,76.2165 781.684,69.8831 732.5,80C 714.271,87.2599 697.271,96.5933 681.5,108C 674.658,111.922 667.658,115.588 660.5,119C 646.496,124.868 632.496,124.868 618.5,119C 599.833,109.004 581.833,98.004 564.5,86C 538.342,70.568 510.342,65.568 480.5,71C 463.956,76.6377 447.289,81.971 430.5,87C 414.771,91.1568 399.438,90.1568 384.5,84C 370.469,76.6517 356.469,69.3184 342.5,62C 331.61,56.9205 320.277,55.5872 308.5,58C 301.172,60.221 294.172,63.221 287.5,67C 269.341,79.9134 251.007,92.5801 232.5,105C 198.655,124.14 165.655,122.806 133.5,101C 118.67,90.0798 103.004,80.4132 86.5,72C 66.1093,64.8579 45.776,65.1912 25.5,73C 16.6989,76.2362 8.03224,79.7362 -0.5,83.5C -0.5,55.5 -0.5,27.5 -0.5,-0.5 Z"/></g>
<g><path style="opacity:1" fill="#ebe2d2" d="M 959.5,164.5 C 959.5,178.833 959.5,193.167 959.5,207.5C 931.37,193.943 904.703,178.109 879.5,160C 863.401,146.566 846.735,133.899 829.5,122C 812.359,110.238 793.692,106.572 773.5,111C 765.281,113.444 757.281,116.444 749.5,120C 721.883,135.642 693.549,149.976 664.5,163C 645.17,171.167 625.17,177.167 604.5,181C 581.311,183.763 559.978,178.763 540.5,166C 528.337,157.751 516.004,149.751 503.5,142C 492.276,135.133 480.109,131.633 467,131.5C 452.725,132.421 438.558,134.254 424.5,137C 410.466,138.66 397.133,136.327 384.5,130C 372.329,122.747 359.996,115.747 347.5,109C 332.374,102.01 318.04,103.344 304.5,113C 286.221,129.946 268.554,147.613 251.5,166C 231.121,184.505 208.121,188.505 182.5,178C 160.132,167.814 138.132,157.148 116.5,146C 86.272,133.662 56.6053,134.996 27.5,150C 18.3015,155.099 8.96818,159.933 -0.5,164.5C -0.5,137.5 -0.5,110.5 -0.5,83.5C 8.03224,79.7362 16.6989,76.2362 25.5,73C 45.776,65.1912 66.1093,64.8579 86.5,72C 103.004,80.4132 118.67,90.0798 133.5,101C 165.655,122.806 198.655,124.14 232.5,105C 251.007,92.5801 269.341,79.9134 287.5,67C 294.172,63.221 301.172,60.221 308.5,58C 320.277,55.5872 331.61,56.9205 342.5,62C 356.469,69.3184 370.469,76.6517 384.5,84C 399.438,90.1568 414.771,91.1568 430.5,87C 447.289,81.971 463.956,76.6377 480.5,71C 510.342,65.568 538.342,70.568 564.5,86C 581.833,98.004 599.833,109.004 618.5,119C 632.496,124.868 646.496,124.868 660.5,119C 667.658,115.588 674.658,111.922 681.5,108C 697.271,96.5933 714.271,87.2599 732.5,80C 781.684,69.8831 828.684,76.2165 873.5,99C 904.317,117.98 932.984,139.814 959.5,164.5 Z"/></g>
<g><path style="opacity:1" fill="#eadcc9" d="M 959.5,207.5 C 959.5,286.5 959.5,365.5 959.5,444.5C 942.167,421.871 924.333,399.538 906,377.5C 894.778,365.614 883.611,353.781 872.5,342C 862.794,332.969 852.461,324.635 841.5,317C 833.302,311.9 824.635,307.9 815.5,305C 806.219,303.481 796.886,303.147 787.5,304C 772.763,308.018 758.097,312.352 743.5,317C 734.934,319.088 726.268,319.755 717.5,319C 710.025,316.73 702.691,314.064 695.5,311C 683.5,303.333 671.5,295.667 659.5,288C 645.464,279.211 630.13,274.211 613.5,273C 597.438,272.895 581.438,271.895 565.5,270C 548.331,265.244 531.997,258.578 516.5,250C 509.65,247.081 502.65,244.414 495.5,242C 477.913,238.248 461.246,240.581 445.5,249C 427.811,259.231 409.811,268.898 391.5,278C 375.568,283.453 359.235,287.12 342.5,289C 319.481,290.011 296.481,291.345 273.5,293C 259.209,295.318 245.875,300.151 233.5,307.5C 219.015,318.581 203.682,328.414 187.5,337C 177.974,341.252 168.308,341.586 158.5,338C 151.928,334.098 145.928,329.431 140.5,324C 125.315,305.143 110.482,285.976 96,266.5C 88.4415,257.942 79.9415,250.442 70.5,244C 59.5117,238.34 47.845,236.34 35.5,238C 23.1325,240.957 11.1325,244.79 -0.5,249.5C -0.5,221.167 -0.5,192.833 -0.5,164.5C 8.96818,159.933 18.3015,155.099 27.5,150C 56.6053,134.996 86.272,133.662 116.5,146C 138.132,157.148 160.132,167.814 182.5,178C 208.121,188.505 231.121,184.505 251.5,166C 268.554,147.613 286.221,129.946 304.5,113C 318.04,103.344 332.374,102.01 347.5,109C 359.996,115.747 372.329,122.747 384.5,130C 397.133,136.327 410.466,138.66 424.5,137C 438.558,134.254 452.725,132.421 467,131.5C 480.109,131.633 492.276,135.133 503.5,142C 516.004,149.751 528.337,157.751 540.5,166C 559.978,178.763 581.311,183.763 604.5,181C 625.17,177.167 645.17,171.167 664.5,163C 693.549,149.976 721.883,135.642 749.5,120C 757.281,116.444 765.281,113.444 773.5,111C 793.692,106.572 812.359,110.238 829.5,122C 846.735,133.899 863.401,146.566 879.5,160C 904.703,178.109 931.37,193.943 959.5,207.5 Z"/></g>
<g><path style="opacity:1" fill="#e7d6c1" d="M 959.5,444.5 C 959.5,460.833 959.5,477.167 959.5,493.5C 939.597,476.545 918.597,461.045 896.5,447C 883.492,439.774 869.825,434.108 855.5,430C 837.954,426.131 820.287,422.797 802.5,420C 785.03,414.906 767.364,410.572 749.5,407C 734.845,405.404 720.512,406.738 706.5,411C 697.554,414.806 688.888,419.139 680.5,424C 656.759,440.725 631.759,455.391 605.5,468C 580.622,477.648 555.288,478.981 529.5,472C 510.23,465.266 490.564,459.932 470.5,456C 458.056,454.323 445.556,453.49 433,453.5C 402.837,454.507 372.671,454.673 342.5,454C 334.521,452.836 326.521,451.836 318.5,451C 299.955,446.697 281.289,443.03 262.5,440C 252.167,439.333 241.833,439.333 231.5,440C 217.501,442.666 203.501,445.333 189.5,448C 168.677,451.295 149.344,447.295 131.5,436C 116.496,426.496 101.162,417.496 85.5,409C 67.4608,401.972 48.7942,399.639 29.5,402C 19.4017,403.387 9.4017,405.22 -0.5,407.5C -0.5,354.833 -0.5,302.167 -0.5,249.5C 11.1325,244.79 23.1325,240.957 35.5,238C 47.845,236.34 59.5117,238.34 70.5,244C 79.9415,250.442 88.4415,257.942 96,266.5C 110.482,285.976 125.315,305.143 140.5,324C 145.928,329.431 151.928,334.098 158.5,338C 168.308,341.586 177.974,341.252 187.5,337C 203.682,328.414 219.015,318.581 233.5,307.5C 245.875,300.151 259.209,295.318 273.5,293C 296.481,291.345 319.481,290.011 342.5,289C 359.235,287.12 375.568,283.453 391.5,278C 409.811,268.898 427.811,259.231 445.5,249C 461.246,240.581 477.913,238.248 495.5,242C 502.65,244.414 509.65,247.081 516.5,250C 531.997,258.578 548.331,265.244 565.5,270C 581.438,271.895 597.438,272.895 613.5,273C 630.13,274.211 645.464,279.211 659.5,288C 671.5,295.667 683.5,303.333 695.5,311C 702.691,314.064 710.025,316.73 717.5,319C 726.268,319.755 734.934,319.088 743.5,317C 758.097,312.352 772.763,308.018 787.5,304C 796.886,303.147 806.219,303.481 815.5,305C 824.635,307.9 833.302,311.9 841.5,317C 852.461,324.635 862.794,332.969 872.5,342C 883.611,353.781 894.778,365.614 906,377.5C 924.333,399.538 942.167,421.871 959.5,444.5 Z"/></g>
<g><path style="opacity:1" fill="#e4d1b9" d="M 959.5,493.5 C 959.5,502.5 959.5,511.5 959.5,520.5C 942.518,508.372 924.852,497.205 906.5,487C 885.56,475.464 863.226,468.131 839.5,465C 809.554,461.459 779.554,458.459 749.5,456C 713.195,454.329 678.195,460.329 644.5,474C 624.716,482.392 605.049,491.059 585.5,500C 557.817,512.891 528.817,517.891 498.5,515C 483.806,512.879 469.806,508.546 456.5,502C 440.077,493.455 423.41,485.455 406.5,478C 379.426,467.886 351.76,465.886 323.5,472C 298.222,479.14 273.222,487.14 248.5,496C 219.572,504.22 190.572,504.554 161.5,497C 141.181,489.783 121.181,481.783 101.5,473C 82.4602,465.756 62.7935,463.09 42.5,465C 28.0069,466.666 13.6736,469.166 -0.5,472.5C -0.5,450.833 -0.5,429.167 -0.5,407.5C 9.4017,405.22 19.4017,403.387 29.5,402C 48.7942,399.639 67.4608,401.972 85.5,409C 101.162,417.496 116.496,426.496 131.5,436C 149.344,447.295 168.677,451.295 189.5,448C 203.501,445.333 217.501,442.666 231.5,440C 241.833,439.333 252.167,439.333 262.5,440C 281.289,443.03 299.955,446.697 318.5,451C 326.521,451.836 334.521,452.836 342.5,454C 372.671,454.673 402.837,454.507 433,453.5C 445.556,453.49 458.056,454.323 470.5,456C 490.564,459.932 510.23,465.266 529.5,472C 555.288,478.981 580.622,477.648 605.5,468C 631.759,455.391 656.759,440.725 680.5,424C 688.888,419.139 697.554,414.806 706.5,411C 720.512,406.738 734.845,405.404 749.5,407C 767.364,410.572 785.03,414.906 802.5,420C 820.287,422.797 837.954,426.131 855.5,430C 869.825,434.108 883.492,439.774 896.5,447C 918.597,461.045 939.597,476.545 959.5,493.5 Z"/></g>
<g><path style="opacity:1" fill="#e2cdb3" d="M 959.5,520.5 C 959.5,543.5 959.5,566.5 959.5,589.5C 945.326,592.834 930.993,595.334 916.5,597C 896.206,598.91 876.54,596.244 857.5,589C 837.819,580.217 817.819,572.217 797.5,565C 768.428,557.446 739.428,557.78 710.5,566C 685.778,574.86 660.778,582.86 635.5,590C 607.24,596.114 579.574,594.114 552.5,584C 535.59,576.545 518.923,568.545 502.5,560C 469.868,544.475 436.201,541.808 401.5,552C 392.015,554.939 382.681,558.273 373.5,562C 344.616,575.942 314.949,587.942 284.5,598C 259.94,604.808 234.94,607.475 209.5,606C 179.446,603.541 149.446,600.541 119.5,597C 95.7735,593.869 73.4402,586.536 52.5,575C 34.1484,564.795 16.4817,553.628 -0.5,541.5C -0.5,518.5 -0.5,495.5 -0.5,472.5C 13.6736,469.166 28.0069,466.666 42.5,465C 62.7935,463.09 82.4602,465.756 101.5,473C 121.181,481.783 141.181,489.783 161.5,497C 190.572,504.554 219.572,504.22 248.5,496C 273.222,487.14 298.222,479.14 323.5,472C 351.76,465.886 379.426,467.886 406.5,478C 423.41,485.455 440.077,493.455 456.5,502C 469.806,508.546 483.806,512.879 498.5,515C 528.817,517.891 557.817,512.891 585.5,500C 605.049,491.059 624.716,482.392 644.5,474C 678.195,460.329 713.195,454.329 749.5,456C 779.554,458.459 809.554,461.459 839.5,465C 863.226,468.131 885.56,475.464 906.5,487C 924.852,497.205 942.518,508.372 959.5,520.5 Z"/></g>
<g><path style="opacity:1" fill="#e4d1b9" d="M -0.5,541.5 C 16.4817,553.628 34.1484,564.795 52.5,575C 73.4402,586.536 95.7735,593.869 119.5,597C 149.446,600.541 179.446,603.541 209.5,606C 234.94,607.475 259.94,604.808 284.5,598C 314.949,587.942 344.616,575.942 373.5,562C 382.681,558.273 392.015,554.939 401.5,552C 436.201,541.808 469.868,544.475 502.5,560C 518.923,568.545 535.59,576.545 552.5,584C 579.574,594.114 607.24,596.114 635.5,590C 660.778,582.86 685.778,574.86 710.5,566C 739.428,557.78 768.428,557.446 797.5,565C 817.819,572.217 837.819,580.217 857.5,589C 876.54,596.244 896.206,598.91 916.5,597C 930.993,595.334 945.326,592.834 959.5,589.5C 959.5,611.167 959.5,632.833 959.5,654.5C 936.094,660.911 912.428,662.077 888.5,658C 879.029,655.509 870.029,651.843 861.5,647C 843.945,635.386 825.611,625.053 806.5,616C 794.314,612.421 781.981,611.755 769.5,614C 755.499,616.667 741.499,619.334 727.5,622C 717.167,622.667 706.833,622.667 696.5,622C 677.711,618.97 659.045,615.303 640.5,611C 632.479,610.164 624.479,609.164 616.5,608C 586.329,607.327 556.163,607.493 526,608.5C 505.482,608.702 485.315,606.202 465.5,601C 447.09,594.973 428.423,589.973 409.5,586C 382.033,584.283 356.366,590.283 332.5,604C 314.163,614.833 296.163,626.167 278.5,638C 265.506,646.219 251.506,651.885 236.5,655C 227.5,655.667 218.5,655.667 209.5,655C 191.636,651.428 173.97,647.094 156.5,642C 138.713,639.203 121.046,635.869 103.5,632C 81.6724,625.956 61.6724,616.289 43.5,603C 28.6217,591.733 13.955,580.233 -0.5,568.5C -0.5,559.5 -0.5,550.5 -0.5,541.5 Z"/></g>
<g><path style="opacity:1" fill="#e7d6c1" d="M -0.5,568.5 C 13.955,580.233 28.6217,591.733 43.5,603C 61.6724,616.289 81.6724,625.956 103.5,632C 121.046,635.869 138.713,639.203 156.5,642C 173.97,647.094 191.636,651.428 209.5,655C 218.5,655.667 227.5,655.667 236.5,655C 251.506,651.885 265.506,646.219 278.5,638C 296.163,626.167 314.163,614.833 332.5,604C 356.366,590.283 382.033,584.283 409.5,586C 428.423,589.973 447.09,594.973 465.5,601C 485.315,606.202 505.482,608.702 526,608.5C 556.163,607.493 586.329,607.327 616.5,608C 624.479,609.164 632.479,610.164 640.5,611C 659.045,615.303 677.711,618.97 696.5,622C 706.833,622.667 717.167,622.667 727.5,622C 741.499,619.334 755.499,616.667 769.5,614C 781.981,611.755 794.314,612.421 806.5,616C 825.611,625.053 843.945,635.386 861.5,647C 870.029,651.843 879.029,655.509 888.5,658C 912.428,662.077 936.094,660.911 959.5,654.5C 959.5,707.167 959.5,759.833 959.5,812.5C 947.867,817.21 935.867,821.043 923.5,824C 906.018,826.133 890.685,821.466 877.5,810C 872.613,805.113 867.779,800.279 863,795.5C 848.518,776.024 833.685,756.857 818.5,738C 813.072,732.569 807.072,727.902 800.5,724C 792.908,721.339 785.241,721.006 777.5,723C 772.387,724.723 767.387,726.723 762.5,729C 748.167,738.667 733.833,748.333 719.5,758C 708.773,763.464 697.44,767.131 685.5,769C 662.519,770.655 639.519,771.989 616.5,773C 584.949,776.03 556.283,786.364 530.5,804C 517.864,811.43 504.53,817.097 490.5,821C 481.447,821.846 472.447,821.513 463.5,820C 447.042,814.106 431.042,807.106 415.5,799C 408.362,796.065 401.029,793.732 393.5,792C 377.562,790.105 361.562,789.105 345.5,789C 330.973,787.859 317.307,783.859 304.5,777C 290.969,768.071 277.303,759.404 263.5,751C 256.309,747.936 248.975,745.27 241.5,743C 232.732,742.245 224.066,742.912 215.5,745C 200.903,749.648 186.237,753.982 171.5,758C 162.114,758.853 152.781,758.519 143.5,757C 126.798,751.153 111.798,742.486 98.5,731C 94.8518,727.021 90.8518,723.355 86.5,720C 55.5608,687.554 26.5608,653.388 -0.5,617.5C -0.5,601.167 -0.5,584.833 -0.5,568.5 Z"/></g>
<g><path style="opacity:1" fill="#eadcc9" d="M -0.5,617.5 C 26.5608,653.388 55.5608,687.554 86.5,720C 90.8518,723.355 94.8518,727.021 98.5,731C 111.798,742.486 126.798,751.153 143.5,757C 152.781,758.519 162.114,758.853 171.5,758C 186.237,753.982 200.903,749.648 215.5,745C 224.066,742.912 232.732,742.245 241.5,743C 248.975,745.27 256.309,747.936 263.5,751C 277.303,759.404 290.969,768.071 304.5,777C 317.307,783.859 330.973,787.859 345.5,789C 361.562,789.105 377.562,790.105 393.5,792C 401.029,793.732 408.362,796.065 415.5,799C 431.042,807.106 447.042,814.106 463.5,820C 472.447,821.513 481.447,821.846 490.5,821C 504.53,817.097 517.864,811.43 530.5,804C 556.283,786.364 584.949,776.03 616.5,773C 639.519,771.989 662.519,770.655 685.5,769C 697.44,767.131 708.773,763.464 719.5,758C 733.833,748.333 748.167,738.667 762.5,729C 767.387,726.723 772.387,724.723 777.5,723C 785.241,721.006 792.908,721.339 800.5,724C 807.072,727.902 813.072,732.569 818.5,738C 833.685,756.857 848.518,776.024 863,795.5C 867.779,800.279 872.613,805.113 877.5,810C 890.685,821.466 906.018,826.133 923.5,824C 935.867,821.043 947.867,817.21 959.5,812.5C 959.5,840.833 959.5,869.167 959.5,897.5C 944.86,905.329 929.86,912.496 914.5,919C 890.094,927.15 866.094,926.15 842.5,916C 820.868,904.852 798.868,894.186 776.5,884C 750.879,873.495 727.879,877.495 707.5,896C 690.446,914.387 672.779,932.054 654.5,949C 640.96,958.656 626.626,959.99 611.5,953C 599.004,946.253 586.671,939.253 574.5,932C 561.867,925.673 548.534,923.34 534.5,925C 520.442,927.746 506.275,929.579 492,930.5C 478.891,930.367 466.724,926.867 455.5,920C 438.167,907.996 420.167,896.996 401.5,887C 386.381,880.939 370.714,878.939 354.5,881C 333.83,884.833 313.83,890.833 294.5,899C 265.451,912.024 237.117,926.358 209.5,942C 196.97,948.066 183.803,951.9 170,953.5C 155.293,952.598 141.793,948.098 129.5,940C 112.265,928.101 95.5986,915.434 79.5,902C 54.2965,883.891 27.6298,868.057 -0.5,854.5C -0.5,775.5 -0.5,696.5 -0.5,617.5 Z"/></g>
<g><path style="opacity:1" fill="#ebe2d2" d="M -0.5,854.5 C 27.6298,868.057 54.2965,883.891 79.5,902C 95.5986,915.434 112.265,928.101 129.5,940C 141.793,948.098 155.293,952.598 170,953.5C 183.803,951.9 196.97,948.066 209.5,942C 237.117,926.358 265.451,912.024 294.5,899C 313.83,890.833 333.83,884.833 354.5,881C 370.714,878.939 386.381,880.939 401.5,887C 420.167,896.996 438.167,907.996 455.5,920C 466.724,926.867 478.891,930.367 492,930.5C 506.275,929.579 520.442,927.746 534.5,925C 548.534,923.34 561.867,925.673 574.5,932C 586.671,939.253 599.004,946.253 611.5,953C 626.626,959.99 640.96,958.656 654.5,949C 672.779,932.054 690.446,914.387 707.5,896C 727.879,877.495 750.879,873.495 776.5,884C 798.868,894.186 820.868,904.852 842.5,916C 866.094,926.15 890.094,927.15 914.5,919C 929.86,912.496 944.86,905.329 959.5,897.5C 959.5,924.5 959.5,951.5 959.5,978.5C 945.159,984.558 930.492,989.725 915.5,994C 895.992,997.248 877.658,993.915 860.5,984C 848.662,976.582 836.996,968.915 825.5,961C 793.345,939.194 760.345,937.86 726.5,957C 707.993,969.42 689.659,982.087 671.5,995C 661.641,1001.01 650.974,1004.51 639.5,1005.5C 631.407,1005.37 623.741,1003.54 616.5,1000C 602.531,992.682 588.531,985.348 574.5,978C 559.562,971.843 544.229,970.843 528.5,975C 511.711,980.029 495.044,985.362 478.5,991C 448.658,996.432 420.658,991.432 394.5,976C 377.167,963.996 359.167,952.996 340.5,943C 326.504,937.132 312.504,937.132 298.5,943C 282.509,950.991 267.176,959.991 252.5,970C 219.776,988.155 185.109,992.822 148.5,984C 110.729,977.315 77.0622,961.981 47.5,938C 31.2835,924.73 15.2835,911.23 -0.5,897.5C -0.5,883.167 -0.5,868.833 -0.5,854.5 Z"/></g>
<g><path style="opacity:1" fill="#ede6d8" d="M -0.5,897.5 C 15.2835,911.23 31.2835,924.73 47.5,938C 77.0622,961.981 110.729,977.315 148.5,984C 185.109,992.822 219.776,988.155 252.5,970C 267.176,959.991 282.509,950.991 298.5,943C 312.504,937.132 326.504,937.132 340.5,943C 359.167,952.996 377.167,963.996 394.5,976C 420.658,991.432 448.658,996.432 478.5,991C 495.044,985.362 511.711,980.029 528.5,975C 544.229,970.843 559.562,971.843 574.5,978C 588.531,985.348 602.531,992.682 616.5,1000C 623.741,1003.54 631.407,1005.37 639.5,1005.5C 650.974,1004.51 661.641,1001.01 671.5,995C 689.659,982.087 707.993,969.42 726.5,957C 760.345,937.86 793.345,939.194 825.5,961C 836.996,968.915 848.662,976.582 860.5,984C 877.658,993.915 895.992,997.248 915.5,994C 930.492,989.725 945.159,984.558 959.5,978.5C 959.5,1008.83 959.5,1039.17 959.5,1069.5C 639.5,1069.5 319.5,1069.5 -0.5,1069.5C -0.5,1012.17 -0.5,954.833 -0.5,897.5 Z"/></g>
</svg>
